<svg width="98" height="21" viewBox="0 0 98 21" fill="none" xmlns="http://www.w3.org/2000/svg">
<path d="M2.42773 12.1064H1.08496C0.418945 12.1064 0 11.6982 0 11.0859C0 10.3125 0.515625 9.80762 1.34277 9.80762H2.88965L3.46973 6.89648H2.0625C1.39648 6.89648 0.977539 6.48828 0.977539 5.87598C0.977539 5.10254 1.49316 4.58691 2.32031 4.58691H3.9209L4.54395 1.5791C4.69434 0.827148 5.11328 0.451172 5.83301 0.451172C6.49902 0.451172 6.90723 0.837891 6.90723 1.46094C6.90723 1.5791 6.88574 1.75098 6.86426 1.87988L6.31641 4.58691H9.13086L9.74316 1.58984C9.89355 0.827148 10.3232 0.451172 11.0322 0.451172C11.709 0.451172 12.1064 0.837891 12.1064 1.46094C12.1064 1.5791 12.0957 1.75098 12.0635 1.87988L11.5156 4.58691H12.9121C13.5889 4.58691 14.0078 4.99512 14.0078 5.60742C14.0078 6.38086 13.4922 6.88574 12.665 6.88574H11.0537L10.4736 9.78613H11.9238C12.5898 9.78613 13.0088 10.2051 13.0088 10.8174C13.0088 11.5908 12.4932 12.1064 11.666 12.1064H10.0225L9.37793 15.2861C9.22754 16.0381 8.79785 16.4141 8.08887 16.4141C7.41211 16.4141 7.01465 16.0273 7.01465 15.4043C7.01465 15.2861 7.02539 15.1143 7.05762 14.9961L7.6377 12.1064H4.8125L4.16797 15.2969C4.01758 16.0488 3.59863 16.4141 2.87891 16.4141C2.21289 16.4141 1.80469 16.0273 1.80469 15.4043C1.80469 15.2861 1.82617 15.1143 1.84766 14.9961L2.42773 12.1064ZM5.07031 9.99023H8.19629L8.87305 6.69238H5.73633L5.07031 9.99023ZM20.0225 16.4463C16.8213 16.4463 14.7695 15.168 14.1465 13.4707C14.0391 13.1914 13.9746 12.8906 13.9746 12.6006C13.9746 11.7412 14.5654 11.1719 15.4033 11.1719C16.0693 11.1719 16.5098 11.4297 16.8965 12.1172C17.4014 13.2988 18.6152 13.8359 20.0977 13.8359C21.8379 13.8359 23.0195 12.998 23.0195 11.8594C23.0195 10.8389 22.2891 10.2588 20.3447 9.86133L18.7012 9.53906C15.6074 8.92676 14.0928 7.44434 14.0928 5.13477C14.0928 2.29883 16.5635 0.418945 20.0117 0.418945C22.8477 0.418945 24.9854 1.61133 25.6729 3.63086C25.748 3.8457 25.791 4.07129 25.791 4.35059C25.791 5.12402 25.2324 5.65039 24.4053 5.65039C23.6748 5.65039 23.2236 5.36035 22.8584 4.69434C22.3428 3.52344 21.3438 3.04004 20.0117 3.04004C18.4111 3.04004 17.3477 3.79199 17.3477 4.93066C17.3477 5.88672 18.0889 6.47754 19.9258 6.84277L21.5586 7.17578C24.8457 7.83105 26.2637 9.15234 26.2637 11.5049C26.2637 14.5342 23.8896 16.4463 20.0225 16.4463ZM28.6045 3.24414C27.6592 3.24414 26.9287 2.52441 26.9287 1.62207C26.9287 0.708984 27.6592 0 28.6045 0C29.5498 0 30.2803 0.708984 30.2803 1.62207C30.2803 2.52441 29.5498 3.24414 28.6045 3.24414ZM28.6045 16.4141C27.627 16.4141 27.0361 15.8018 27.0361 14.7812V6.08008C27.0361 5.05957 27.627 4.43652 28.6045 4.43652C29.5713 4.43652 30.1729 5.05957 30.1729 6.08008V14.7812C30.1729 15.8018 29.5713 16.4141 28.6045 16.4141ZM32.8359 16.4141C31.9014 16.4141 31.2676 15.8447 31.2676 14.7812V6.03711C31.2676 4.98438 31.8906 4.43652 32.7822 4.43652C33.6738 4.43652 34.2969 4.98438 34.2969 6.03711V6.75684H34.3613C34.8447 5.37109 36.0801 4.45801 37.6484 4.45801C39.3135 4.45801 40.4736 5.31738 40.8604 6.82129H40.9248C41.4404 5.37109 42.8154 4.45801 44.502 4.45801C46.7578 4.45801 48.2725 6.00488 48.2725 8.3252V14.7812C48.2725 15.8447 47.6279 16.4141 46.6934 16.4141C45.7695 16.4141 45.1357 15.8447 45.1357 14.7812V9.10938C45.1357 7.77734 44.4697 7.04688 43.2559 7.04688C42.0635 7.04688 41.2793 7.91699 41.2793 9.19531V14.7812C41.2793 15.8447 40.6992 16.4141 39.7646 16.4141C38.8408 16.4141 38.2607 15.8447 38.2607 14.7812V9.0127C38.2607 7.77734 37.5625 7.04688 36.4023 7.04688C35.21 7.04688 34.4043 7.94922 34.4043 9.23828V14.7812C34.4043 15.8447 33.7598 16.4141 32.8359 16.4141ZM50.8281 20.292C49.915 20.292 49.2598 19.7334 49.2598 18.6592V6.04785C49.2598 4.99512 49.9043 4.43652 50.8066 4.43652C51.709 4.43652 52.3535 4.99512 52.3535 6.05859V6.68164H52.418C53.041 5.32812 54.3193 4.49023 55.9844 4.49023C58.9062 4.49023 60.7002 6.71387 60.7002 10.4307C60.7002 14.1367 58.917 16.3711 56.0381 16.3711C54.3623 16.3711 53.0732 15.5547 52.4609 14.2549H52.3965V18.6592C52.3965 19.7334 51.752 20.292 50.8281 20.292ZM54.9316 13.8467C56.5 13.8467 57.4883 12.5254 57.4883 10.4307C57.4883 8.34668 56.5 7.00391 54.9316 7.00391C53.3955 7.00391 52.3857 8.36816 52.3857 10.4307C52.3857 12.5146 53.3955 13.8467 54.9316 13.8467ZM62.9658 16.4141C62.0527 16.4141 61.3975 15.8555 61.3975 14.7812V2.09473C61.3975 1.02051 62.0527 0.451172 62.9658 0.451172C63.8896 0.451172 64.5342 1.02051 64.5342 2.09473V14.7812C64.5342 15.8555 63.8896 16.4141 62.9658 16.4141ZM71.2471 16.3926C70.2266 16.3926 69.625 15.7695 69.625 14.7061V3.37305H66.4238C65.543 3.37305 64.9521 2.86816 64.9521 2.03027C64.9521 1.19238 65.5322 0.6875 66.4238 0.6875H76.0811C76.9619 0.6875 77.542 1.19238 77.542 2.03027C77.542 2.86816 76.9512 3.37305 76.0811 3.37305H72.8691V14.7061C72.8691 15.7695 72.2676 16.3926 71.2471 16.3926ZM78.6475 16.3711C76.4561 16.3711 74.791 14.9531 74.791 12.8799C74.791 10.7852 76.4023 9.57129 79.2812 9.39941L82.1816 9.22754V8.46484C82.1816 7.39062 81.4297 6.76758 80.248 6.76758C79.292 6.76758 78.7119 7.0791 78.0137 7.98145C77.6699 8.36816 77.2725 8.56152 76.7676 8.56152C76.0049 8.56152 75.457 8.06738 75.457 7.3584C75.457 7.11133 75.5107 6.88574 75.6182 6.64941C76.1553 5.27441 78.0029 4.42578 80.3877 4.42578C83.3418 4.42578 85.2646 5.95117 85.2646 8.27148V14.835C85.2646 15.877 84.6309 16.4141 83.7393 16.4141C82.8906 16.4141 82.2998 15.9414 82.2354 15.0176V14.4268H82.1709C81.5264 15.6514 80.0869 16.3711 78.6475 16.3711ZM79.6787 14.1045C81.0537 14.1045 82.1816 13.2129 82.1816 11.9668V11.1289L79.7539 11.2793C78.583 11.3652 77.917 11.8916 77.917 12.708C77.917 13.5674 78.626 14.1045 79.6787 14.1045ZM91.4404 20.5176C89.0879 20.5068 87.3369 19.6152 86.5957 18.4014C86.4238 18.1113 86.3594 17.8213 86.3594 17.5312C86.3594 16.876 86.8535 16.3818 87.6377 16.3818C88.0459 16.3818 88.3682 16.5107 88.7227 16.833C89.5713 17.6387 90.3877 18.0791 91.4297 18.0898C93.1484 18.1006 94.1582 17.1553 94.1582 15.7158V13.8789H94.0938C93.5566 15.1143 92.2139 15.9414 90.5488 15.9414C87.6807 15.9414 85.876 13.75 85.876 10.2373C85.876 6.62793 87.6377 4.49023 90.6025 4.49023C92.2568 4.49023 93.5137 5.36035 94.1152 6.66016H94.1797V6.02637C94.1797 4.96289 94.8564 4.43652 95.7588 4.43652C96.6611 4.43652 97.3164 4.96289 97.3164 6.02637V15.7373C97.3164 18.7344 95.1465 20.5391 91.4404 20.5176ZM91.6123 13.6104C93.1807 13.6104 94.1904 12.3643 94.1904 10.2803C94.1904 8.20703 93.1807 6.875 91.6123 6.875C90.0654 6.875 89.0879 8.18555 89.0879 10.2695C89.0879 12.375 90.0547 13.6104 91.6123 13.6104Z" fill="#1E293B"/>
</svg>
